<svg xmlns="http://www.w3.org/2000/svg" xmlns:xlink="http://www.w3.org/1999/xlink" width="64" height="64" viewBox="0 0 64 64"><defs><clipPath id="b"><rect width="64" height="64"/></clipPath></defs><g id="a" clip-path="url(#b)"><path d="M-104,64l-31.995,0a8.009,8.009,0,0,0,8-8,8.009,8.009,0,0,0-8-8,8.009,8.009,0,0,0-8,8,8.009,8.009,0,0,0,8,8h-24V40.149a7.962,7.962,0,0,0,2.4,5.554A7.952,7.952,0,0,0-152,48a8.009,8.009,0,0,0,8-8,8.009,8.009,0,0,0-8-8,7.952,7.952,0,0,0-5.6,2.3A7.951,7.951,0,0,0-160,39.85l0-31.676a7.963,7.963,0,0,0,2.4,5.537A7.953,7.953,0,0,0-152,16a8.009,8.009,0,0,0,8-8,7.951,7.951,0,0,0-2.3-5.61A7.951,7.951,0,0,0-151.865,0l31.7,0a7.961,7.961,0,0,0-5.545,2.4A7.953,7.953,0,0,0-128,8a8.009,8.009,0,0,0,8,8,8.009,8.009,0,0,0,8-8,7.952,7.952,0,0,0-2.293-5.6A7.953,7.953,0,0,0-119.838,0L-96,0V23.994A8.01,8.01,0,0,0-104,16a8.009,8.009,0,0,0-8,8,8.009,8.009,0,0,0,8,8,8.009,8.009,0,0,0,8-8V55.82a7.963,7.963,0,0,0-2.405-5.533A7.953,7.953,0,0,0-104,48a8.009,8.009,0,0,0-8,8,8.009,8.009,0,0,0,8,8h0Zm-16-32a8.008,8.008,0,0,0-8,8,8.009,8.009,0,0,0,8,8,8.009,8.009,0,0,0,8-8A8.009,8.009,0,0,0-120,32Zm-16-16a8.009,8.009,0,0,0-8,8,8.009,8.009,0,0,0,8,8,8.009,8.009,0,0,0,8-8A8.009,8.009,0,0,0-136,16Zm40,48h-7.994A7.959,7.959,0,0,0-98.4,61.711,7.952,7.952,0,0,0-96,56.18L-96,64ZM-160,7.825h0V0h7.865a7.969,7.969,0,0,0-5.506,2.334A7.958,7.958,0,0,0-160,7.825Z" transform="translate(160)" fill="#ffb983"/></g></svg>