<svg xmlns="http://www.w3.org/2000/svg" xmlns:xlink="http://www.w3.org/1999/xlink" width="64" height="64" viewBox="0 0 64 64"><defs><clipPath id="b"><rect width="64" height="64"/></clipPath></defs><g id="a" clip-path="url(#b)"><circle cx="4" cy="4" r="4" fill="#faebd4"/><circle cx="4" cy="4" r="4" transform="translate(0 16)" fill="#faebd4"/><circle cx="4" cy="4" r="4" transform="translate(0 32)" fill="#faebd4"/><circle cx="4" cy="4" r="4" transform="translate(0 48)" fill="#faebd4"/><circle cx="4" cy="4" r="4" transform="translate(8 8)" fill="#faebd4"/><circle cx="4" cy="4" r="4" transform="translate(8 24)" fill="#faebd4"/><circle cx="4" cy="4" r="4" transform="translate(8 40)" fill="#faebd4"/><circle cx="4" cy="4" r="4" transform="translate(8 56)" fill="#faebd4"/><circle cx="4" cy="4" r="4" transform="translate(16)" fill="#faebd4"/><circle cx="4" cy="4" r="4" transform="translate(16 16)" fill="#faebd4"/><circle cx="4" cy="4" r="4" transform="translate(16 32)" fill="#faebd4"/><circle cx="4" cy="4" r="4" transform="translate(16 48)" fill="#faebd4"/><circle cx="4" cy="4" r="4" transform="translate(24 8)" fill="#faebd4"/><circle cx="4" cy="4" r="4" transform="translate(24 24)" fill="#faebd4"/><circle cx="4" cy="4" r="4" transform="translate(24 40)" fill="#faebd4"/><circle cx="4" cy="4" r="4" transform="translate(24 56)" fill="#faebd4"/><circle cx="4" cy="4" r="4" transform="translate(32)" fill="#faebd4"/><circle cx="4" cy="4" r="4" transform="translate(32 16)" fill="#faebd4"/><circle cx="4" cy="4" r="4" transform="translate(32 32)" fill="#faebd4"/><circle cx="4" cy="4" r="4" transform="translate(32 48)" fill="#faebd4"/><circle cx="4" cy="4" r="4" transform="translate(40 8)" fill="#faebd4"/><circle cx="4" cy="4" r="4" transform="translate(40 24)" fill="#faebd4"/><circle cx="4" cy="4" r="4" transform="translate(40 40)" fill="#faebd4"/><circle cx="4" cy="4" r="4" transform="translate(40 56)" fill="#faebd4"/><circle cx="4" cy="4" r="4" transform="translate(48)" fill="#faebd4"/><circle cx="4" cy="4" r="4" transform="translate(48 16)" fill="#faebd4"/><circle cx="4" cy="4" r="4" transform="translate(48 32)" fill="#faebd4"/><circle cx="4" cy="4" r="4" transform="translate(48 48)" fill="#faebd4"/><circle cx="4" cy="4" r="4" transform="translate(56 8)" fill="#faebd4"/><circle cx="4" cy="4" r="4" transform="translate(56 24)" fill="#faebd4"/><circle cx="4" cy="4" r="4" transform="translate(56 40)" fill="#faebd4"/><circle cx="4" cy="4" r="4" transform="translate(56 56)" fill="#faebd4"/></g></svg>