<svg xmlns="http://www.w3.org/2000/svg" xmlns:xlink="http://www.w3.org/1999/xlink" width="64" height="64" viewBox="0 0 64 64"><defs><clipPath id="b"><rect width="64" height="64"/></clipPath></defs><g id="a" clip-path="url(#b)"><path d="M0,55.746c15.929,0,16.052-7.871,32-8" transform="translate(0 -43.746)" fill="none" stroke="#b4dddc" stroke-width="8"/><path d="M32,55.746c-15.929,0-16.052-7.871-32-8" transform="translate(32 -43.746)" fill="none" stroke="#b4dddc" stroke-width="8"/><rect width="0.5" height="8" transform="translate(31.75)" fill="#b4dddc"/><g transform="translate(0 16)"><path d="M0,55.746c15.929,0,16.052-7.871,32-8" transform="translate(0 -43.746)" fill="none" stroke="#b4dddc" stroke-width="8"/><path d="M32,55.746c-15.929,0-16.052-7.871-32-8" transform="translate(32 -43.746)" fill="none" stroke="#b4dddc" stroke-width="8"/><rect width="0.5" height="8" transform="translate(31.75)" fill="#b4dddc"/></g><g transform="translate(0 32)"><path d="M0,55.746c15.929,0,16.052-7.871,32-8" transform="translate(0 -43.746)" fill="none" stroke="#b4dddc" stroke-width="8"/><path d="M32,55.746c-15.929,0-16.052-7.871-32-8" transform="translate(32 -43.746)" fill="none" stroke="#b4dddc" stroke-width="8"/><rect width="0.5" height="8" transform="translate(31.75)" fill="#b4dddc"/></g><g transform="translate(0 48)"><path d="M0,55.746c15.929,0,16.052-7.871,32-8" transform="translate(0 -43.746)" fill="none" stroke="#b4dddc" stroke-width="8"/><path d="M32,55.746c-15.929,0-16.052-7.871-32-8" transform="translate(32 -43.746)" fill="none" stroke="#b4dddc" stroke-width="8"/><rect width="0.5" height="8" transform="translate(31.75)" fill="#b4dddc"/></g></g></svg>