<svg xmlns="http://www.w3.org/2000/svg" xmlns:xlink="http://www.w3.org/1999/xlink" width="64" height="64" viewBox="0 0 64 64"><defs><clipPath id="b"><rect width="64" height="64"/></clipPath></defs><g id="a" clip-path="url(#b)"><path d="M0,53.718c7.964,0,8.026-5.876,16-5.972" transform="translate(0 -44.759)" fill="none" stroke="#b4dddc" stroke-width="6"/><path d="M16,53.718c-7.964,0-8.026-5.876-16-5.972" transform="translate(16 -44.759)" fill="none" stroke="#b4dddc" stroke-width="6"/><rect width="0.25" height="5.972" transform="translate(15.875)" fill="#b4dddc"/><g transform="translate(32)"><path d="M0,53.718c7.964,0,8.026-5.876,16-5.972" transform="translate(0 -44.759)" fill="none" stroke="#b4dddc" stroke-width="6"/><path d="M16,53.718c-7.964,0-8.026-5.876-16-5.972" transform="translate(16 -44.759)" fill="none" stroke="#b4dddc" stroke-width="6"/><rect width="0.25" height="5.972" transform="translate(15.875)" fill="#b4dddc"/></g><g transform="translate(0 13)"><path d="M0,53.718c7.964,0,8.026-5.876,16-5.972" transform="translate(0 -44.759)" fill="none" stroke="#b4dddc" stroke-width="6"/><path d="M16,53.718c-7.964,0-8.026-5.876-16-5.972" transform="translate(16 -44.759)" fill="none" stroke="#b4dddc" stroke-width="6"/><rect width="0.25" height="5.972" transform="translate(15.875)" fill="#b4dddc"/></g><g transform="translate(32 13)"><path d="M0,53.718c7.964,0,8.026-5.876,16-5.972" transform="translate(0 -44.759)" fill="none" stroke="#b4dddc" stroke-width="6"/><path d="M16,53.718c-7.964,0-8.026-5.876-16-5.972" transform="translate(16 -44.759)" fill="none" stroke="#b4dddc" stroke-width="6"/><rect width="0.25" height="5.972" transform="translate(15.875)" fill="#b4dddc"/></g><g transform="translate(0 26)"><path d="M0,53.718c7.964,0,8.026-5.876,16-5.972" transform="translate(0 -44.759)" fill="none" stroke="#b4dddc" stroke-width="6"/><path d="M16,53.718c-7.964,0-8.026-5.876-16-5.972" transform="translate(16 -44.759)" fill="none" stroke="#b4dddc" stroke-width="6"/><rect width="0.25" height="5.972" transform="translate(15.875)" fill="#b4dddc"/></g><g transform="translate(32 26)"><path d="M0,53.718c7.964,0,8.026-5.876,16-5.972" transform="translate(0 -44.759)" fill="none" stroke="#b4dddc" stroke-width="6"/><path d="M16,53.718c-7.964,0-8.026-5.876-16-5.972" transform="translate(16 -44.759)" fill="none" stroke="#b4dddc" stroke-width="6"/><rect width="0.25" height="5.972" transform="translate(15.875)" fill="#b4dddc"/></g><g transform="translate(0 39)"><path d="M0,53.718c7.964,0,8.026-5.876,16-5.972" transform="translate(0 -44.759)" fill="none" stroke="#b4dddc" stroke-width="6"/><path d="M16,53.718c-7.964,0-8.026-5.876-16-5.972" transform="translate(16 -44.759)" fill="none" stroke="#b4dddc" stroke-width="6"/><rect width="0.25" height="5.972" transform="translate(15.875)" fill="#b4dddc"/></g><g transform="translate(32 39)"><path d="M0,53.718c7.964,0,8.026-5.876,16-5.972" transform="translate(0 -44.759)" fill="none" stroke="#b4dddc" stroke-width="6"/><path d="M16,53.718c-7.964,0-8.026-5.876-16-5.972" transform="translate(16 -44.759)" fill="none" stroke="#b4dddc" stroke-width="6"/><rect width="0.25" height="5.972" transform="translate(15.875)" fill="#b4dddc"/></g><g transform="translate(0 52)"><path d="M0,53.718c7.964,0,8.026-5.876,16-5.972" transform="translate(0 -44.759)" fill="none" stroke="#b4dddc" stroke-width="6"/><path d="M16,53.718c-7.964,0-8.026-5.876-16-5.972" transform="translate(16 -44.759)" fill="none" stroke="#b4dddc" stroke-width="6"/><rect width="0.25" height="5.972" transform="translate(15.875)" fill="#b4dddc"/></g><g transform="translate(32 52)"><path d="M0,53.718c7.964,0,8.026-5.876,16-5.972" transform="translate(0 -44.759)" fill="none" stroke="#b4dddc" stroke-width="6"/><path d="M16,53.718c-7.964,0-8.026-5.876-16-5.972" transform="translate(16 -44.759)" fill="none" stroke="#b4dddc" stroke-width="6"/><rect width="0.25" height="5.972" transform="translate(15.875)" fill="#b4dddc"/></g></g></svg>